<svg width="358" height="413" viewBox="0 0 358 413" fill="none" xmlns="http://www.w3.org/2000/svg">
<g filter="url(#filter0_d_990_1621)">
<path d="M48.0135 108.432C117.224 18.1123 242.882 23.9769 305.711 108.432C368.541 192.888 369.799 386.428 310.889 395.813C251.978 405.198 106.612 410.935 54.2956 388.53C1.97903 366.125 -21.1973 198.752 48.0135 108.432Z" fill="#FBF7D0"/>
</g>
<ellipse cx="66.6274" cy="59.64" rx="32.2047" ry="46.5398" transform="rotate(-24.7424 66.6274 59.64)" fill="#6F4439"/>
<ellipse cx="255.095" cy="42.873" rx="26.378" ry="38.3824" transform="rotate(9.61189 255.095 42.873)" fill="#6F4439"/>
<path d="M323.291 123.316C323.291 157.354 262.685 177.883 181.638 177.883C100.592 177.883 21.391 153.198 34.2092 123.316C49.8917 86.7573 100.592 47.1504 181.638 47.1504C262.685 47.1504 303.43 91.567 323.291 123.316Z" fill="#6F4439"/>
<ellipse cx="183.061" cy="125.236" rx="20.9629" ry="22.3418" fill="#FF2626"/>
<path d="M185.357 120.669C183.568 100.564 189.344 91.1797 209.664 77.1743" stroke="#FF0E0E" stroke-width="8"/>
<ellipse cx="104.516" cy="209.878" rx="10.8379" ry="13.6084" fill="#1C1B1F"/>
<ellipse cx="255.096" cy="202.821" rx="10.8379" ry="13.6084" fill="#1C1B1F"/>
<ellipse cx="193.863" cy="235.289" rx="52.4707" ry="18.8594" fill="#6F4439"/>
<defs>
<filter id="filter0_d_990_1621" x="0.925781" y="42.873" width="357.059" height="369.227" filterUnits="userSpaceOnUse" color-interpolation-filters="sRGB">
<feFlood flood-opacity="0" result="BackgroundImageFix"/>
<feColorMatrix in="SourceAlpha" type="matrix" values="0 0 0 0 0 0 0 0 0 0 0 0 0 0 0 0 0 0 127 0" result="hardAlpha"/>
<feOffset dy="4"/>
<feGaussianBlur stdDeviation="2"/>
<feComposite in2="hardAlpha" operator="out"/>
<feColorMatrix type="matrix" values="0 0 0 0 0 0 0 0 0 0 0 0 0 0 0 0 0 0 0.25 0"/>
<feBlend mode="normal" in2="BackgroundImageFix" result="effect1_dropShadow_990_1621"/>
<feBlend mode="normal" in="SourceGraphic" in2="effect1_dropShadow_990_1621" result="shape"/>
</filter>
</defs>
</svg>
