<svg width="32" height="32" viewBox="0 0 32 32" fill="none" xmlns="http://www.w3.org/2000/svg">
<path fill-rule="evenodd" clip-rule="evenodd" d="M1.625 8.78125V5.1875C1.625 3.22312 3.22316 1.625 5.1875 1.625H8.78125C9.22997 1.625 9.59375 1.26122 9.59375 0.8125C9.59375 0.363781 9.22997 0 8.78125 0H5.1875C2.32712 0 0 2.32709 0 5.1875V8.78125C0 9.22997 0.363781 9.59375 0.8125 9.59375C1.26122 9.59375 1.625 9.22997 1.625 8.78125ZM8.78125 30.375C9.22997 30.375 9.59375 30.7388 9.59375 31.1875C9.59375 31.6362 9.22997 32 8.78125 32H5.1875C2.32712 32 0 29.6729 0 26.8125V23.2188C0 22.77 0.363781 22.4062 0.8125 22.4062C1.26122 22.4062 1.625 22.77 1.625 23.2188V26.8125C1.625 28.7768 3.22316 30.375 5.1875 30.375H8.78125ZM32 23.2188V26.8125C32 29.6729 29.6729 32 26.8125 32H23.2188C22.77 32 22.4062 31.6362 22.4062 31.1875C22.4062 30.7388 22.77 30.375 23.2188 30.375H26.8125C28.7768 30.375 30.375 28.7768 30.375 26.8125V23.2188C30.375 22.77 30.7388 22.4062 31.1875 22.4062C31.6362 22.4062 32 22.77 32 23.2188ZM32 5.1875V8.78125C32 9.22997 31.6362 9.59375 31.1875 9.59375C30.7388 9.59375 30.375 9.22997 30.375 8.78125V5.1875C30.375 3.22312 28.7768 1.625 26.8125 1.625H23.2188C22.77 1.625 22.4062 1.26122 22.4062 0.8125C22.4062 0.363781 22.77 0 23.2188 0H26.8125C29.6729 0 32 2.32709 32 5.1875ZM21.6071 23.6511C21.9494 23.3349 21.9706 22.8011 21.6544 22.4587C21.3381 22.1164 20.8044 22.0953 20.4621 22.4114C19.244 23.5366 17.6593 24.1562 15.9999 24.1562C14.3405 24.1562 12.7558 23.5366 11.5378 22.4114C11.1954 22.0953 10.6617 22.1165 10.3455 22.4587C10.0293 22.8011 10.0505 23.3349 10.3928 23.6511C11.9236 25.065 13.9148 25.8437 15.9999 25.8437C18.085 25.8437 20.0763 25.065 21.6071 23.6511ZM17.6875 12.0625V18.0625C17.6875 19.2515 16.7202 20.2188 15.5312 20.2188H14.8438C14.3778 20.2188 14 19.841 14 19.375C14 18.909 14.3778 18.5312 14.8438 18.5312H15.5312C15.7897 18.5312 16 18.321 16 18.0625V12.0625C16 11.5965 16.3778 11.2188 16.8438 11.2188C17.3097 11.2188 17.6875 11.5965 17.6875 12.0625ZM23.5 14.4219V12.0156C23.5 11.5755 23.1432 11.2188 22.7031 11.2188C22.263 11.2188 21.9062 11.5755 21.9062 12.0156V14.4219C21.9062 14.862 22.263 15.2188 22.7031 15.2188C23.1432 15.2188 23.5 14.862 23.5 14.4219ZM8.6875 14.4219C8.6875 14.862 9.04428 15.2188 9.48438 15.2188C9.92447 15.2188 10.2812 14.862 10.2812 14.4219V12.0156C10.2812 11.5755 9.92447 11.2188 9.48438 11.2188C9.04428 11.2188 8.6875 11.5755 8.6875 12.0156V14.4219Z" fill="black"/>
</svg>
