<svg width="1920" height="1280" viewBox="0 0 1920 1280" fill="none" xmlns="http://www.w3.org/2000/svg">
<g clip-path="url(#clip0_777_1517)">
<rect width="1920" height="1280" fill="white"/>
<path opacity="0.2" fill-rule="evenodd" clip-rule="evenodd" d="M2150.38 589.678C2133.96 759.088 2051.9 730.317 1901.67 739.077C1901.72 739.686 1901.75 740 1901.75 740C1899.07 739.791 1896.24 739.664 1893.29 739.601C1862.3 741.569 1831.45 745.433 1800.93 751.173C1792.75 752.743 1784.49 753.848 1776.19 754.482C1730.53 763.794 1692.59 774.02 1692.59 774.02C1575.41 814.339 1497.29 818.119 1497.29 818.119C1441.43 822.499 1383.16 818.743 1330.96 796.861C1289.01 779.275 1252.7 749.607 1229.46 710.276C1190.25 643.928 1204.38 559.228 1229.08 490.926C1246.67 442.29 1275.77 396.574 1323.98 373.981C1353.7 360.051 1386.64 360.396 1417.74 351.312C1444.94 343.365 1471.16 331.57 1494.37 315.225C1514.53 301.036 1534.57 282.805 1546.43 260.801C1588.47 182.855 1652.01 117.378 1748.41 141.975C1774.95 148.746 1800.23 160.302 1823.75 174.22C1826.93 176.102 1843.76 184.322 1850.83 190.327L1851.11 190.045C1851.11 190.045 2170.16 385.624 2150.38 589.678Z" fill="#A9C611"/>
<g clip-path="url(#clip1_777_1517)">
<g clip-path="url(#clip2_777_1517)">
<path opacity="0.169" d="M-25.1011 254.602C-24.6881 249.885 -2.12122 238.963 1.39877 236.882C22.0217 224.682 44.1906 214.546 67.4606 208.608C151.992 187.04 207.705 244.453 244.56 312.802C254.96 332.096 272.535 348.082 290.209 360.524C310.569 374.856 333.555 385.199 357.409 392.167C384.68 400.133 413.56 399.83 439.622 412.045C481.892 431.856 507.413 471.944 522.833 514.588C544.489 574.479 556.884 648.748 522.502 706.926C502.123 741.41 470.284 767.425 433.495 782.848C387.725 802.034 336.631 805.33 287.647 801.489C287.647 801.489 219.147 798.175 116.399 762.82C116.399 762.82 -10.6552 728.57 -67 732.99C-66.999 732.994 -25.1181 254.796 -25.1011 254.602Z" fill="#F7B029"/>
</g>
</g>
<path opacity="0.2" fill-rule="evenodd" clip-rule="evenodd" d="M703.196 811.369C676.42 723.484 585.909 675.523 497.477 693.886C454.254 702.861 415.346 733.325 392.524 770.741C367.806 811.269 368.188 856.01 379.141 900.821C379.141 900.835 425.194 1089.28 631.088 1032.83C631.088 1032.83 755.322 982.459 703.196 811.369Z" fill="#E57798"/>
</g>
<defs>
<clipPath id="clip0_777_1517">
<rect width="1920" height="1280" fill="white"/>
</clipPath>
<clipPath id="clip1_777_1517">
<rect width="610.92" height="598.91" fill="white" transform="translate(-67 204)"/>
</clipPath>
<clipPath id="clip2_777_1517">
<rect width="610.92" height="598.899" fill="white" transform="translate(-67 204.005)"/>
</clipPath>
</defs>
</svg>
